<svg width="24" height="25" viewBox="0 0 24 25" fill="none" xmlns="http://www.w3.org/2000/svg">
<path fill-rule="evenodd" clip-rule="evenodd" d="M12.0099 0.548676C5.36875 0.548676 0 5.957 0 12.6478C0 17.9962 3.43994 22.5234 8.21205 24.1258C8.80869 24.2462 9.02724 23.8655 9.02724 23.5451C9.02724 23.2646 9.00757 22.3032 9.00757 21.3014C5.6667 22.0227 4.97099 19.8591 4.97099 19.8591C4.43409 18.4569 3.63858 18.0965 3.63858 18.0965C2.54511 17.3553 3.71823 17.3553 3.71823 17.3553C4.93117 17.4354 5.56763 18.5972 5.56763 18.5972C6.64118 20.44 8.37111 19.9193 9.06706 19.5988C9.16638 18.8175 9.48473 18.2767 9.82275 17.9763C7.15817 17.6958 4.35469 16.6542 4.35469 12.0067C4.35469 10.6846 4.8316 9.60295 5.58729 8.76171C5.46807 8.4613 5.0504 7.21911 5.70677 5.55654C5.70677 5.55654 6.72083 5.23597 9.00732 6.79849C9.98625 6.53364 10.9958 6.39892 12.0099 6.39778C13.024 6.39778 14.0577 6.53815 15.0123 6.79849C17.299 5.23597 18.3131 5.55654 18.3131 5.55654C18.9695 7.21911 18.5515 8.4613 18.4323 8.76171C19.2079 9.60295 19.6652 10.6846 19.6652 12.0067C19.6652 16.6542 16.8617 17.6756 14.1772 17.9763C14.6148 18.3568 14.9924 19.0779 14.9924 20.2197C14.9924 21.8422 14.9727 23.1444 14.9727 23.5449C14.9727 23.8655 15.1915 24.2462 15.7879 24.126C20.56 22.5232 23.9999 17.9962 23.9999 12.6478C24.0196 5.957 18.6312 0.548676 12.0099 0.548676Z" fill="#18F2E5"/>
</svg>
