<svg width="18" height="20" viewBox="0 0 20 19" fill="none" xmlns="http://www.w3.org/2000/svg">
<path d="M19.25 6.69867C16.94 3.06867 13.56 0.978668 10 0.978668C8.22 0.978668 6.49 1.49867 4.91 2.46867C3.33 3.44867 1.91 4.87867 0.75 6.69867C-0.25 8.26867 -0.25 10.8187 0.75 12.3887C3.06 16.0287 6.44 18.1087 10 18.1087C11.78 18.1087 13.51 17.5887 15.09 16.6187C16.67 15.6387 18.09 14.2087 19.25 12.3887C20.25 10.8287 20.25 8.26867 19.25 6.69867ZM10 13.5887C7.76 13.5887 5.96 11.7787 5.96 9.54867C5.96 7.31867 7.76 5.50867 10 5.50867C12.24 5.50867 14.04 7.31867 14.04 9.54867C14.04 11.7787 12.24 13.5887 10 13.5887Z" fill="#18F2E5"/>
</svg>
